<svg width="88" height="89" viewBox="0 0 88 89" fill="none" xmlns="http://www.w3.org/2000/svg">
<path fill-rule="evenodd" clip-rule="evenodd" d="M26.0352 79.7101L37.0405 82.9796V78.7041L37.9389 77.6981H44.2277V82.7281V86.249H37.4897L29.1795 82.2251L26.0352 79.7101Z" fill="#CDBDB2"/>
<path fill-rule="evenodd" clip-rule="evenodd" d="M61.9688 79.7101L51.188 82.9796V78.7041L50.2896 77.6981H44.0008V82.7281V86.249H50.7388L59.049 82.2251L61.9688 79.7101Z" fill="#CDBDB2"/>
<path fill-rule="evenodd" clip-rule="evenodd" d="M37.9336 70.4046L37.0352 78.704L38.1582 77.698H49.8373L51.1849 78.704L50.2865 70.4046L48.4897 69.1471L39.5058 69.3986L37.9336 70.4046Z" fill="#393939"/>
<path fill-rule="evenodd" clip-rule="evenodd" d="M31.8711 14.3207L37.2615 28.4046L39.7321 69.3987H48.4915L51.1866 28.4046L56.1278 14.3207H31.8711Z" fill="#F89C35"/>
<path fill-rule="evenodd" clip-rule="evenodd" d="M8.28878 45.2545L2 65.6257L17.722 64.6198H27.8289V55.8173L27.3797 37.7095L25.1337 39.7215L8.28878 45.2545Z" fill="#F89D35"/>
<path fill-rule="evenodd" clip-rule="evenodd" d="M20.1953 47.5181L38.6125 48.0211L36.5911 58.5839L27.8317 56.069L20.1953 47.5181Z" fill="#D87C30"/>
<path fill-rule="evenodd" clip-rule="evenodd" d="M20.1953 47.7695L27.8317 55.8175V63.8654L20.1953 47.7695Z" fill="#EA8D3A"/>
<path fill-rule="evenodd" clip-rule="evenodd" d="M27.832 56.0688L36.816 58.5838L39.7358 69.3982L37.7144 70.6556L27.832 64.1167V56.0688Z" fill="#F89D35"/>
<path fill-rule="evenodd" clip-rule="evenodd" d="M27.832 64.1166L26.0352 79.7094L37.9389 70.404L27.832 64.1166Z" fill="#EB8F35"/>
<path fill-rule="evenodd" clip-rule="evenodd" d="M38.6093 48.021L39.7323 69.3983L36.3633 58.4581L38.6093 48.021Z" fill="#EA8E3A"/>
<path fill-rule="evenodd" clip-rule="evenodd" d="M17.4961 64.3681L27.8277 64.1166L26.0309 79.7094L17.4961 64.3681Z" fill="#D87C30"/>
<path fill-rule="evenodd" clip-rule="evenodd" d="M6.94119 86.4998L26.0321 79.7094L17.4974 64.368L2 65.6255L6.94119 86.4998Z" fill="#D87C30"/>
<path fill-rule="evenodd" clip-rule="evenodd" d="M37.2649 28.4041L27.6071 37.458L20.1953 47.5179L38.6125 48.2724L37.2649 28.4041Z" fill="#E8821E"/>
<path fill-rule="evenodd" clip-rule="evenodd" d="M26.0352 79.7102L37.9389 70.4048L37.0405 78.4527V82.9797L28.9549 81.2192L26.0352 79.7102Z" fill="#DFCEC3"/>
<path fill-rule="evenodd" clip-rule="evenodd" d="M61.9688 79.7102L50.2896 70.4048L51.188 78.4527V82.9797L59.2736 81.2192L61.9688 79.7102Z" fill="#DFCEC3"/>
<path fill-rule="evenodd" clip-rule="evenodd" d="M33.67 52.5486L36.1406 58.333L27.3812 55.8181L33.67 52.5486Z" fill="#393939"/>
<path fill-rule="evenodd" clip-rule="evenodd" d="M6.7168 2.50006L37.2623 28.4043L32.0965 14.3204L6.7168 2.50006Z" fill="#E88F35"/>
<path fill-rule="evenodd" clip-rule="evenodd" d="M6.71466 2.50006L2.67188 16.3324L4.91787 31.4223L3.34567 32.4283L5.59167 34.6917L3.79487 36.4522L6.26547 38.9672L4.69327 40.4762L8.28686 45.5061L25.1318 39.7217C25.1318 39.7217 37.4848 28.6558 37.2602 28.4043C37.0356 28.1528 6.71466 2.50006 6.71466 2.50006Z" fill="#8E5A30"/>
<path fill-rule="evenodd" clip-rule="evenodd" d="M79.7112 45.2545L86 65.6257L70.278 64.6198H60.1711V55.8173L60.6203 37.7095L62.8663 39.7215L79.7112 45.2545Z" fill="#F89D35"/>
<path fill-rule="evenodd" clip-rule="evenodd" d="M67.8047 47.5181L49.3875 48.0211L51.4089 58.5839L60.1683 56.069L67.8047 47.5181Z" fill="#D87C30"/>
<path fill-rule="evenodd" clip-rule="evenodd" d="M67.8047 47.7695L60.1683 55.8175V63.8654L67.8047 47.7695Z" fill="#EA8D3A"/>
<path fill-rule="evenodd" clip-rule="evenodd" d="M60.168 56.0688L51.184 58.5838L48.2642 69.3982L50.2856 70.6556L60.168 64.1167V56.0688Z" fill="#F89D35"/>
<path fill-rule="evenodd" clip-rule="evenodd" d="M60.168 64.1166L61.9648 79.7094L50.2857 70.6555L60.168 64.1166Z" fill="#EB8F35"/>
<path fill-rule="evenodd" clip-rule="evenodd" d="M49.3907 48.021L48.2677 69.3983L51.6367 58.4581L49.3907 48.021Z" fill="#EA8E3A"/>
<path fill-rule="evenodd" clip-rule="evenodd" d="M70.5039 64.3681L60.1723 64.1166L61.9691 79.7094L70.5039 64.3681Z" fill="#D87C30"/>
<path fill-rule="evenodd" clip-rule="evenodd" d="M81.0588 86.4998L61.9679 79.7094L70.5026 64.368L86 65.6255L81.0588 86.4998Z" fill="#D87C30"/>
<path fill-rule="evenodd" clip-rule="evenodd" d="M50.7351 28.4041L60.3929 37.458L67.8047 47.5179L49.3875 48.2724L50.7351 28.4041Z" fill="#E8821E"/>
<path fill-rule="evenodd" clip-rule="evenodd" d="M54.33 52.5486L51.8594 58.333L60.6188 55.8181L54.33 52.5486Z" fill="#393939"/>
<path fill-rule="evenodd" clip-rule="evenodd" d="M81.2832 2.50006L50.7377 28.4043L55.9035 14.3204L81.2832 2.50006Z" fill="#E88F35"/>
<path fill-rule="evenodd" clip-rule="evenodd" d="M81.2853 2.50006L85.3281 16.3324L83.0821 31.4223L84.6543 32.4283L82.4083 34.6917L84.2051 36.4522L81.7345 38.9672L83.3067 40.4762L79.7131 45.5061L62.8682 39.7217C62.8682 39.7217 50.5152 28.6558 50.7398 28.4043C50.9644 28.1528 81.2853 2.50006 81.2853 2.50006Z" fill="#8E5A30"/>
</svg>
