<svg width="20" height="20" viewBox="0 0 20 20" fill="none" xmlns="http://www.w3.org/2000/svg">
<path d="M13.5859 3.07338C13.8777 3.54415 14.0296 4.1963 14.0691 4.46353L8.96035 4.04568C8.92057 4.01728 8.78906 3.91797 8.58124 3.74794C8.32147 3.5354 7.80196 3.03003 8.24593 2.81076C8.58038 2.64557 9.29846 2.72667 9.67294 2.79773C9.71422 2.80556 9.75682 2.79401 9.78788 2.76573C9.83343 2.72427 9.84343 2.65688 9.81553 2.60197C9.58455 2.1475 9.58914 1.68768 10.3098 1.81148C10.9047 1.91365 11.6728 2.50684 12.0165 2.82016C12.0381 2.83985 12.0687 2.84609 12.0962 2.83609C12.1351 2.82191 12.1556 2.77962 12.1496 2.73861C12.1303 2.60544 12.1578 2.42005 12.3749 2.38764C12.7007 2.33901 13.2211 2.48491 13.5859 3.07338Z" fill="url(#paint0_linear_132_1190)"/>
<path fill-rule="evenodd" clip-rule="evenodd" d="M9.83807 1.84375C9.60817 1.96653 9.65478 2.28561 9.81562 2.60209C9.84353 2.65699 9.83353 2.72438 9.78798 2.76584C9.76162 2.78984 9.72697 2.80179 9.69186 2.80008C9.82583 2.86222 10.1441 3.01328 10.4449 3.16636C10.4705 3.17939 10.5016 3.17379 10.521 3.15261C10.5462 3.12511 10.5426 3.08205 10.5142 3.05791C10.2564 2.83904 9.84113 2.35985 9.83807 1.84375ZM12.0168 2.8205C12.1549 2.99673 12.4534 3.38659 12.6049 3.6161C12.798 3.90855 12.8146 3.61058 12.5662 3.18018C12.3613 2.82485 12.2804 2.57107 12.3205 2.4002C12.1533 2.45337 12.1321 2.61764 12.1497 2.73873C12.1557 2.77974 12.1352 2.82202 12.0963 2.8362C12.0689 2.84616 12.0384 2.84002 12.0168 2.8205Z" fill="url(#paint1_linear_132_1190)"/>
<circle cx="10.87" cy="10.9513" r="7.33437" fill="url(#paint2_linear_132_1190)"/>
<path opacity="0.1" fill-rule="evenodd" clip-rule="evenodd" d="M16.2003 5.91307C14.8379 4.7371 13.0631 4.02593 11.1221 4.02593C7.58386 4.02593 4.59759 6.38927 3.65576 9.6235C4.28057 6.2067 7.27297 3.61694 10.8702 3.61694C12.9698 3.61694 14.8633 4.49914 16.2003 5.91307Z" fill="url(#paint3_linear_132_1190)"/>
<path d="M10.2455 16.6343C14.4283 16.6343 17.819 13.4447 17.819 9.51012C17.819 9.09721 17.7817 8.6925 17.71 8.29883C18.0293 9.12145 18.2044 10.016 18.2044 10.9514C18.2044 15.0021 14.9207 18.2858 10.87 18.2858C7.73725 18.2858 5.06323 16.3216 4.01221 13.5577C5.37889 15.4165 7.66102 16.6343 10.2455 16.6343Z" fill="url(#paint4_linear_132_1190)"/>
<path d="M1.46643 12.3482C2.52491 13.2608 4.96184 14.0266 7.86632 13.4233C10.1138 12.9565 10.844 11.4677 10.9463 10.7241C10.685 8.43487 2.9433 9.44788 1.58781 9.83131C0.503422 10.1381 1.15888 10.962 1.62215 11.3356C1.21742 11.3689 0.619647 11.6181 1.46643 12.3482Z" fill="url(#paint5_linear_132_1190)"/>
<path opacity="0.4" fill-rule="evenodd" clip-rule="evenodd" d="M7.86631 13.4234C4.96184 14.0267 2.52491 13.2609 1.46643 12.3483C0.619642 11.6182 1.21741 11.369 1.62215 11.3357C1.15887 10.9621 0.503416 10.1382 1.5878 9.83144C1.77444 9.77864 2.08214 9.71392 2.47472 9.64751C1.98329 10.2397 1.97322 11.7992 3.62565 12.494C5.05861 13.0966 7.80116 13.1321 10.1927 12.1972C9.71579 12.7133 8.976 13.1929 7.86631 13.4234Z" fill="url(#paint6_linear_132_1190)"/>
<circle cx="14.6067" cy="8.84647" r="3.11405" fill="#FFFEFE"/>
<circle cx="15.8599" cy="8.47144" r="1.53126" fill="#190A0D"/>
<circle cx="15.3177" cy="7.68533" r="0.675075" fill="#FFFEFE"/>
<path d="M14.893 11.535C12.9552 11.758 11.9258 10.4895 11.6533 9.82744C11.724 10.6965 13.0864 12.1469 14.893 11.9469C17.3265 11.6775 17.7833 9.70648 17.7146 8.78589C17.7146 9.07727 17.3152 11.2563 14.893 11.535Z" fill="url(#paint7_linear_132_1190)"/>
<path d="M14.1404 6.07627C12.5704 6.35001 11.767 7.60125 11.5615 8.19266C11.7259 7.30188 12.462 6.0313 14.0674 5.77486C15.6729 5.51843 16.8222 6.48451 17.1597 7.05209C16.8074 6.61276 15.7104 5.80253 14.1404 6.07627Z" fill="url(#paint8_linear_132_1190)"/>
<path d="M12.4101 4.41947L14.0944 4.42445C14.4922 4.42562 14.6877 4.90925 14.4024 5.18649C14.2186 5.36516 13.9785 5.47465 13.7231 5.49635L11.8759 5.65323C11.4821 5.68668 11.2319 5.24115 11.4653 4.92225L11.4948 4.88206C11.7083 4.59034 12.0486 4.4184 12.4101 4.41947Z" fill="#E84424"/>
<path fill-rule="evenodd" clip-rule="evenodd" d="M11.3889 5.30564C11.441 5.50963 11.6303 5.67402 11.8752 5.65322L13.7223 5.49634C13.9778 5.47464 14.2178 5.36515 14.4017 5.18649C14.6739 4.92197 14.5084 4.46959 14.1472 4.42759C14.1789 4.56754 14.1447 4.72344 14.023 4.84176C13.8391 5.02043 13.5991 5.12992 13.3436 5.15161L11.4965 5.3085C11.4592 5.31166 11.4233 5.31054 11.3889 5.30564Z" fill="#D23314"/>
<path d="M17.6923 13.0247C17.2585 12.6225 16.9752 12.3085 16.6266 11.8205C16.5429 11.7033 16.5479 11.5447 16.6372 11.4316C17.0448 10.9158 17.3201 10.6046 17.683 10.2432C17.8081 10.1186 18.01 10.1177 18.1363 10.2411C18.5483 10.6441 18.8235 10.9602 19.1864 11.4337C19.2724 11.5459 19.2762 11.7012 19.1948 11.8168C18.8464 12.3111 18.5675 12.6272 18.1273 13.0273C18.0037 13.1396 17.8148 13.1382 17.6923 13.0247Z" fill="url(#paint9_linear_132_1190)"/>
<path d="M17.4629 11.4924C17.8375 11.5723 18.433 11.6417 19.2539 11.5671C19.2539 12.0894 18.3584 11.8656 17.4629 11.4924Z" fill="#CA6433"/>
<defs>
<linearGradient id="paint0_linear_132_1190" x1="11.0709" y1="1.79102" x2="11.4706" y2="4.69233" gradientUnits="userSpaceOnUse">
<stop stop-color="#F57364"/>
<stop offset="1" stop-color="#E3310B"/>
</linearGradient>
<linearGradient id="paint1_linear_132_1190" x1="11.7009" y1="2.21463" x2="11.2156" y2="3.0918" gradientUnits="userSpaceOnUse">
<stop stop-color="#C02B0D" stop-opacity="0.3"/>
<stop offset="1" stop-color="#C02B0D"/>
</linearGradient>
<linearGradient id="paint2_linear_132_1190" x1="10.87" y1="3.61694" x2="10.87" y2="17.3819" gradientUnits="userSpaceOnUse">
<stop stop-color="#F57364"/>
<stop offset="1" stop-color="#DC2E27"/>
</linearGradient>
<linearGradient id="paint3_linear_132_1190" x1="9.92802" y1="3.61694" x2="9.92802" y2="9.6235" gradientUnits="userSpaceOnUse">
<stop stop-color="white"/>
<stop offset="1" stop-color="white" stop-opacity="0.3"/>
</linearGradient>
<linearGradient id="paint4_linear_132_1190" x1="14.9873" y1="10.395" x2="13.3617" y2="19.4517" gradientUnits="userSpaceOnUse">
<stop stop-color="#C02C0E" stop-opacity="0.3"/>
<stop offset="1" stop-color="#C02C0E"/>
</linearGradient>
<linearGradient id="paint5_linear_132_1190" x1="10.9314" y1="10.6241" x2="1.71243" y2="12.091" gradientUnits="userSpaceOnUse">
<stop stop-color="#F57364"/>
<stop offset="1" stop-color="#E3310B"/>
</linearGradient>
<linearGradient id="paint6_linear_132_1190" x1="11.3894" y1="10.5518" x2="1.10722" y2="12.1879" gradientUnits="userSpaceOnUse">
<stop stop-color="#D82702" stop-opacity="0.3"/>
<stop offset="0.6" stop-color="#721501"/>
</linearGradient>
<linearGradient id="paint7_linear_132_1190" x1="14.6871" y1="8.78589" x2="14.6871" y2="11.9656" gradientUnits="userSpaceOnUse">
<stop stop-color="#E95032"/>
<stop offset="1" stop-color="#E84424"/>
</linearGradient>
<linearGradient id="paint8_linear_132_1190" x1="14.3606" y1="5.73242" x2="14.3606" y2="8.19266" gradientUnits="userSpaceOnUse">
<stop stop-color="#E95032"/>
<stop offset="1" stop-color="#E84424"/>
</linearGradient>
<linearGradient id="paint9_linear_132_1190" x1="17.9102" y1="10.1492" x2="17.5348" y2="13.1107" gradientUnits="userSpaceOnUse">
<stop stop-color="#FFD3BE"/>
<stop offset="1" stop-color="#F3A27B"/>
</linearGradient>
</defs>
</svg>
