<svg xmlns="http://www.w3.org/2000/svg" width="130" height="100" viewBox="0 0 130 40" fill="none">
<path d="M26.2832 23.0097V16.9891C26.2832 16.768 26.151 16.545 25.9591 16.4339L20.3527 13.1981C20.1636 13.0888 19.8988 13.089 19.7106 13.198L14.0696 16.434C13.878 16.5447 13.7134 16.7679 13.7134 16.9891V23.0097C13.7134 23.2309 13.8775 23.454 14.0693 23.5649L19.6913 26.8005C19.7859 26.8553 19.9058 26.8843 20.0211 26.8843C20.1363 26.8843 20.2517 26.8554 20.3461 26.8008L25.9574 23.5647C26.1488 23.4537 26.2832 23.2307 26.2832 23.0097Z" fill="#0081C2"/>
<path d="M11.5238 23.0559V17.0188C11.5238 16.7921 11.4155 16.5674 11.2161 16.4594L7.4518 14.4162C7.3701 14.372 7.2803 14.3486 7.19031 14.3486C6.89644 14.3486 6.66724 14.5841 6.66724 14.8848V25.1899C6.66724 25.4905 6.90282 25.7261 7.19679 25.7261C7.28677 25.7261 7.38019 25.7027 7.4617 25.6586L11.2148 23.6151C11.414 23.5072 11.5238 23.2825 11.5238 23.0559Z" fill="#006394"/>
<path d="M21.4587 11.2848L27.0875 14.5355C27.1827 14.5904 27.2938 14.6194 27.4102 14.6194C27.5197 14.6194 27.6254 14.5934 27.7167 14.544L31.47 12.5134C31.6457 12.4185 31.7521 12.2471 31.7547 12.055C31.7572 11.8628 31.6553 11.6886 31.4829 11.5893L21.932 6.07504C21.847 6.0259 21.7549 6 21.6601 6C21.3674 6 21.1411 6.23492 21.1411 6.53488V10.7297C21.1412 10.9509 21.2669 11.174 21.4587 11.2848Z" fill="#008BD1"/>
<path d="M8.59062 12.5132L12.3445 14.544C12.4356 14.5933 12.5417 14.6193 12.6513 14.6193C12.768 14.6193 12.88 14.5902 12.9752 14.5352L18.5709 11.2844C18.7622 11.1736 18.8561 10.9506 18.8561 10.7296V6.53488C18.8561 6.23492 18.6617 6 18.3688 6C18.2739 6 18.1961 6.026 18.1116 6.07494L8.56958 11.589C8.39674 11.6886 8.29933 11.8627 8.3018 12.0547C8.30428 12.2468 8.41493 12.4182 8.59062 12.5132Z" fill="#00527A"/>
<path d="M32.8316 14.3486C32.7418 14.3486 32.6641 14.372 32.5826 14.4161L28.8061 16.4593C28.6065 16.5671 28.4729 16.7919 28.4729 17.0188V23.0559C28.4729 23.2827 28.6131 23.5074 28.8125 23.6151L32.5925 25.6519C32.6742 25.6962 32.7705 25.713 32.8604 25.713C33.0171 25.713 33.1356 25.6504 33.2347 25.5299C33.3131 25.4344 33.3294 25.3178 33.3294 25.1898V14.8848C33.3295 14.584 33.1256 14.3486 32.8316 14.3486Z" fill="#007DBD"/>
<path d="M18.5701 28.7142L13.0252 25.5028C12.8402 25.3958 12.5914 25.3919 12.4028 25.4939L8.65329 27.5247C8.47779 27.6196 8.37371 27.7911 8.37114 27.9831C8.36866 28.1752 8.47141 28.3493 8.64386 28.4486L18.1276 33.9227C18.2126 33.9719 18.3082 33.997 18.4031 33.997C18.5614 33.997 18.6743 33.9274 18.773 33.8043C18.8499 33.7085 18.8558 33.5915 18.8558 33.464V29.2692C18.8558 29.0483 18.762 28.8253 18.5701 28.7142Z" fill="#003957"/>
</svg>